<?xml version="1.0" encoding="UTF-8" standalone="no"?>
<!-- Created with Inkscape (http://www.inkscape.org/) -->

<svg
   width="500"
   height="500"
   viewBox="0 0 132.29166 132.29167"
   version="1.1"
   id="svg5"
   inkscape:version="1.1.2 (0a00cf5339, 2022-02-04)"
   sodipodi:docname="Tiffin Logo.svg"
   xmlns:inkscape="http://www.inkscape.org/namespaces/inkscape"
   xmlns:sodipodi="http://sodipodi.sourceforge.net/DTD/sodipodi-0.dtd"
   xmlns="http://www.w3.org/2000/svg"
   xmlns:svg="http://www.w3.org/2000/svg">
  <sodipodi:namedview
     id="namedview7"
     pagecolor="#ffffff"
     bordercolor="#666666"
     borderopacity="1.0"
     inkscape:pageshadow="2"
     inkscape:pageopacity="0.0"
     inkscape:pagecheckerboard="0"
     inkscape:document-units="mm"
     showgrid="false"
     inkscape:zoom="1.0610557"
     inkscape:cx="397.24586"
     inkscape:cy="202.15715"
     inkscape:window-width="1920"
     inkscape:window-height="1016"
     inkscape:window-x="0"
     inkscape:window-y="0"
     inkscape:window-maximized="1"
     inkscape:current-layer="layer1"
     units="px"
     height="500px" />
  <defs
     id="defs2" />
  <g
     inkscape:label="Layer 1"
     inkscape:groupmode="layer"
     id="layer1">
    <g
       id="g5712"
       transform="matrix(0.59871531,0,0,0.59871531,3.7174181,-18.100226)">
      <path
         style="fill:#00ffff;stroke:none;stroke-width:1.1165"
         d="m 98.528062,102.25262 -0.0011,33.49502 -3.348377,9.81735 -3.34503,-8.70087 -0.0046,-29.02901 c -6.753142,0 -14.604245,1.11206 -21.213471,-0.33716 -3.703088,-0.81279 -7.134979,-4.33693 -11.115854,-3.17857 -6.048969,1.76061 -6.327313,10.60222 0.01224,12.07263 7.076255,1.64015 18.951668,-1.85783 26.734776,-1.85783 0,9.6186 -2.820943,24.48926 0.828776,33.44578 2.471592,6.06598 11.087612,7.32315 15.090258,2.02759 2.88171,-3.81397 1.94496,-9.78276 1.94496,-14.25991 v -33.49502 c 5.05218,0 27.71709,-2.901786 29.75917,2.52217 2.23858,5.9443 -18.79736,4.17685 -21.94366,4.17685 0,10.70613 1.67364,22.97088 -0.30593,33.49498 -0.88985,4.73394 -5.30897,10.84679 0.56048,14.30905 4.18798,2.47079 9.69679,-0.62636 10.17241,-5.38266 0.39081,-3.90883 -3.02347,-7.32535 -3.56721,-11.1594 -1.11985,-7.91148 -0.16077,-16.57328 -0.16077,-24.56295 5.8806,0 13.73851,1.29958 18.91459,-2.07447 6.09832,-3.97473 6.02128,-14.292114 -1.09975,-17.1938 -13.00944,-5.301359 -36.15114,-0.828775 -50.193338,-0.828775 -6.662033,0 -15.061005,1.923485 -18.980473,-4.465996 18.730823,-4.459405 42.162371,-1.434365 61.407451,-1.111362 5.95205,0.09993 17.8249,6.383355 19.49183,-3.371042 0.82732,-4.844042 -3.8095,-8.175114 -8.2833,-7.270971 -14.7255,2.976022 -27.94037,3.937887 -43.587022,3.937887 -8.632764,0 -19.610845,-1.783829 -27.895267,0.897666 -6.716519,2.174046 -9.330462,11.313478 -3.111677,15.839413 4.256646,3.09797 10.427199,2.24341 15.375965,2.24341 z"
         id="path9376" />
      <text
         xml:space="preserve"
         style="font-weight:bold;font-size:42.9656px;line-height:1.25;font-family:Dyuthi;-inkscape-font-specification:'Dyuthi Bold';stroke-width:0.503502"
         x="0.24027708"
         y="193.35316"
         id="text3777"><tspan
           sodipodi:role="line"
           id="tspan3775"
           style="stroke-width:0.503502"
           x="0.24027708"
           y="193.35316">TIFFIN.COM</tspan></text>
    </g>
  </g>
</svg>
